<svg width="45" height="32" viewBox="0 0 45 32" fill="none" xmlns="http://www.w3.org/2000/svg">
<path fill-rule="evenodd" clip-rule="evenodd" d="M13.0551 12.575C12.7247 12.9877 12.196 13.3132 11.6674 13.2667C11.6013 12.7087 11.8601 12.1159 12.163 11.7497C12.4934 11.3255 13.0716 11.0232 13.5397 11C13.5948 11.5812 13.38 12.1508 13.0551 12.575ZM13.5341 13.3772C13.0683 13.3489 12.6434 13.525 12.3001 13.6673C12.0792 13.7588 11.8921 13.8363 11.7498 13.8363C11.5901 13.8363 11.3954 13.7547 11.1767 13.663C10.8901 13.5428 10.5625 13.4055 10.2189 13.4121C9.43141 13.4237 8.69899 13.8945 8.29698 14.6442C7.47094 16.1437 8.08221 18.3638 8.88072 19.5843C9.27171 20.1888 9.7398 20.8513 10.3566 20.8281C10.6279 20.8173 10.8231 20.7299 11.0251 20.6394C11.2577 20.5353 11.4993 20.4271 11.8765 20.4271C12.2406 20.4271 12.4717 20.5325 12.6934 20.6336C12.9043 20.7298 13.1068 20.8221 13.4074 20.8165C14.0462 20.8049 14.4482 20.212 14.8392 19.6076C15.2612 18.9589 15.4466 18.3257 15.4747 18.2297L15.478 18.2185C15.478 18.2185 15.4721 18.2153 15.4629 18.2109C15.3219 18.1427 14.2438 17.6218 14.2335 16.2251C14.2231 15.0527 15.0886 14.4586 15.2248 14.3651C15.2331 14.3594 15.2387 14.3556 15.2412 14.3536C14.6905 13.4934 13.8315 13.4005 13.5341 13.3772ZM17.9565 20.7525V11.6917H21.178C22.8411 11.6917 24.0031 12.9006 24.0031 14.6674C24.0031 16.4342 22.8191 17.6547 21.134 17.6547H19.2892V20.7525H17.9565ZM19.289 12.8772H20.8254C21.9819 12.8772 22.6427 13.5281 22.6427 14.6731C22.6427 15.818 21.9819 16.4748 20.8199 16.4748H19.289V12.8772ZM28.4031 19.6656C28.0506 20.3746 27.2742 20.8221 26.4371 20.8221C25.198 20.8221 24.3334 20.0433 24.3334 18.8693C24.3334 17.7069 25.1705 17.0386 26.718 16.9398L28.381 16.8351V16.3353C28.381 15.5972 27.924 15.1962 27.1089 15.1962C26.4371 15.1962 25.947 15.5623 25.8479 16.1203H24.6473C24.6859 14.9463 25.7322 14.0919 27.1475 14.0919C28.6729 14.0919 29.6642 14.9346 29.6642 16.2423V20.7524H28.4306V19.6656H28.4031ZM26.7945 19.7469C26.0842 19.7469 25.6326 19.3865 25.6326 18.8344C25.6326 18.2648 26.0676 17.9336 26.8992 17.8813L28.3805 17.7824V18.2939C28.3805 19.1424 27.6977 19.7469 26.7945 19.7469ZM33.7558 21.107C33.2217 22.6937 32.6104 23.2168 31.3107 23.2168C31.2116 23.2168 30.8812 23.2052 30.8041 23.1819V22.0951C30.8867 22.1067 31.0905 22.1183 31.1951 22.1183C31.7843 22.1183 32.1148 21.8568 32.3185 21.1768L32.4397 20.7758L30.1818 14.1792H31.5751L33.1446 19.532H33.1721L34.7416 14.1792H36.0963L33.7558 21.107Z" fill="white"/>
</svg>
