<svg width="33" height="15" viewBox="0 0 33 15" fill="none" xmlns="http://www.w3.org/2000/svg">
<path fill-rule="evenodd" clip-rule="evenodd" d="M6.50757 2.04236C6.12986 2.5081 5.52552 2.87545 4.92118 2.82298C4.84564 2.19323 5.14151 1.52413 5.48775 1.11086C5.86546 0.631998 6.52645 0.290888 7.06155 0.264648C7.1245 0.92063 6.87899 1.56349 6.50757 2.04236ZM7.05445 2.94759C6.52204 2.91566 6.03624 3.11444 5.64384 3.275C5.39133 3.37832 5.17749 3.46582 5.01481 3.46582C4.83225 3.46582 4.60959 3.37364 4.35958 3.27015C4.032 3.13454 3.65749 2.97951 3.26475 2.98695C2.36453 3.00007 1.52727 3.53141 1.06773 4.37763C0.123447 6.07006 0.822213 8.5759 1.73502 9.95346C2.18197 10.6357 2.71707 11.3835 3.42213 11.3573C3.73231 11.3451 3.95544 11.2464 4.18636 11.1443C4.45221 11.0268 4.72838 10.9046 5.1596 10.9046C5.57587 10.9046 5.83997 11.0236 6.09348 11.1377C6.33453 11.2463 6.56602 11.3505 6.90966 11.3441C7.6399 11.331 8.09945 10.6619 8.54641 9.9797C9.02875 9.2475 9.24072 8.5329 9.27288 8.42445L9.27665 8.41191C9.27588 8.41111 9.26993 8.40826 9.25941 8.40325C9.09818 8.32633 7.86576 7.73842 7.85394 6.1619C7.84207 4.83863 8.83146 4.16819 8.9872 4.06265C8.99668 4.05623 9.00307 4.0519 9.00596 4.04964C8.37644 3.07879 7.39439 2.97383 7.05445 2.94759ZM12.1112 11.2721V1.04532H15.7938C17.695 1.04532 19.0233 2.40976 19.0233 4.40394C19.0233 6.39813 17.6698 7.77569 15.7435 7.77569H13.6346V11.2721H12.1112ZM13.6311 2.38339H15.3875C16.7095 2.38339 17.4649 3.11809 17.4649 4.41037C17.4649 5.70266 16.7095 6.44391 15.3812 6.44391H13.6311V2.38339ZM24.0531 10.0453C23.6502 10.8456 22.7625 11.3507 21.8057 11.3507C20.3893 11.3507 19.4009 10.4717 19.4009 9.14658C19.4009 7.83462 20.3578 7.08024 22.1267 6.96873L24.0279 6.85065V6.28651C24.0279 5.45341 23.5054 5.00079 22.5737 5.00079C21.8057 5.00079 21.2454 5.41405 21.1321 6.04379H19.7597C19.8038 4.71871 20.9999 3.75442 22.6178 3.75442C24.3615 3.75442 25.4947 4.70559 25.4947 6.18155V11.272H24.0845V10.0453H24.0531ZM22.213 10.1372C21.4009 10.1372 20.8847 9.73052 20.8847 9.10734C20.8847 8.46448 21.382 8.09057 22.3326 8.03153L24.026 7.92002V8.49728C24.026 9.45501 23.2454 10.1372 22.213 10.1372ZM30.1713 11.6721C29.5607 13.4629 28.8619 14.0533 27.3763 14.0533C27.263 14.0533 26.8853 14.0402 26.7971 14.014V12.7873C26.8916 12.8004 27.1245 12.8135 27.2441 12.8135C27.9177 12.8135 28.2954 12.5183 28.5283 11.7508L28.6668 11.2982L26.0858 3.85282H27.6784L29.4726 9.8944H29.5041L31.2982 3.85282H32.8468L30.1713 11.6721Z" fill="white"/>
</svg>
