<svg width="65" height="32" viewBox="0 0 65 32" fill="none" xmlns="http://www.w3.org/2000/svg">
<path d="M0 5.29412C0 2.37026 2.37026 0 5.29412 0H39.7059C42.6297 0 45 2.37026 45 5.29412V26.4706C45 29.3944 42.6297 31.7647 39.7059 31.7647H5.29412C2.37026 31.7647 0 29.3944 0 26.4706V5.29412Z" />
<path d="M18.5293 30.6763L43.6764 23.066V26.7057C43.6764 28.8986 41.8987 30.6763 39.7058 30.6763H18.5293Z" fill="#FD6020"/>
<path fill-rule="evenodd" clip-rule="evenodd" d="M38.9032 12.0585C40.2867 12.0585 41.0476 12.6984 41.0476 13.9073C41.1168 14.8317 40.4942 15.6139 39.6641 15.7561L41.5318 18.3872H40.0792L38.4882 15.8273H38.3498V18.3872H37.1739V12.0585H38.9032ZM38.3501 14.9741H38.6959C39.4568 14.9741 39.8027 14.6185 39.8027 13.9786C39.8027 13.4097 39.4568 13.0541 38.6959 13.0541H38.3501V14.9741ZM33.0928 18.3872H36.4131V17.3205H34.2687V15.6139H36.3439V14.5473H34.2687V13.1251H36.4131V12.0585H33.0928V18.3872ZM29.6344 16.325L28.0434 12.0585H26.7982L29.3577 18.5294H29.9802L32.5397 12.0585H31.2945L29.6344 16.325ZM15.5915 15.2584C15.5915 17.0361 16.975 18.5294 18.7044 18.5294C19.2578 18.5294 19.742 18.3872 20.2262 18.1739V16.7517C19.8803 17.1783 19.3961 17.4628 18.8427 17.4628C17.7359 17.4628 16.8367 16.6095 16.8367 15.4717V15.3295C16.7675 14.1918 17.6668 13.1962 18.7735 13.1251C19.3269 13.1251 19.8803 13.4096 20.2262 13.8362V12.414C19.8111 12.1296 19.2578 12.0585 18.7735 12.0585C16.975 11.9163 15.5915 13.4096 15.5915 15.2584ZM13.4475 14.4762C12.7557 14.1918 12.5482 14.0495 12.5482 13.694C12.6174 13.2673 12.9632 12.9118 13.3783 12.9829C13.7242 12.9829 14.07 13.1962 14.3467 13.4807L14.9693 12.6273C14.4851 12.2007 13.8625 11.9163 13.2399 11.9163C12.2715 11.8451 11.4414 12.6273 11.3722 13.6229V13.694C11.3722 14.5473 11.7181 15.0451 12.8249 15.4006C13.1016 15.4717 13.3783 15.6139 13.655 15.7562C13.8625 15.8984 14.0008 16.1117 14.0008 16.3961C14.0008 16.8939 13.5858 17.3206 13.1708 17.3206H13.1016C12.5482 17.3206 12.064 16.965 11.8565 16.4672L11.0955 17.2494C11.5106 18.0316 12.3407 18.4583 13.1708 18.4583C14.2775 18.5294 15.1768 17.6761 15.246 16.5384V16.325C15.1768 15.4717 14.8309 15.0451 13.4475 14.4762ZM9.43532 18.3872H10.6113V12.0585H9.43532V18.3872ZM3.97059 12.0585H6.0458C7.70598 12.1296 9.02028 13.5518 8.95111 15.2584C8.95111 16.1828 8.53607 17.0361 7.84433 17.6761C7.22176 18.1739 6.46085 18.4583 5.69994 18.3872H3.97059V12.0585ZM5.49253 17.3207C6.04592 17.3918 6.66848 17.1785 7.08353 16.823C7.49857 16.3963 7.70609 15.8274 7.70609 15.1874C7.70609 14.6186 7.49857 14.0497 7.08353 13.623C6.66848 13.2675 6.04592 13.0542 5.49253 13.1253H5.14666V17.3207H5.49253Z" fill="white"/>
<path fill-rule="evenodd" clip-rule="evenodd" d="M23.7541 11.9117C22.0248 11.9117 20.5721 13.3338 20.5721 15.1827C20.5721 16.9604 21.9556 18.4537 23.7541 18.5248C25.5526 18.5959 26.9361 17.1026 27.0053 15.2538C26.9361 13.405 25.5526 11.9117 23.7541 11.9117Z" fill="#FD6020"/>
</svg>
