<svg width="41" height="20" viewBox="0 0 41 20" fill="none" xmlns="http://www.w3.org/2000/svg">
<path d="M15.5312 19.6762L40.6783 12.0659V15.7056C40.6783 17.8985 38.9006 19.6762 36.7077 19.6762H15.5312Z" fill="#FD6020"/>
<path fill-rule="evenodd" clip-rule="evenodd" d="M35.9056 1.05832C37.289 1.05832 38.0499 1.6983 38.0499 2.90716C38.1191 3.83158 37.4966 4.61378 36.6665 4.756L38.5342 7.38704H37.0815L35.4905 4.82711H35.3522V7.38704H34.1762V1.05832H35.9056ZM35.3505 3.97382H35.6964C36.4573 3.97382 36.8031 3.61827 36.8031 2.97829C36.8031 2.40941 36.4573 2.05387 35.6964 2.05387H35.3505V3.97382ZM30.0971 7.38704H33.4174V6.3204H31.273V4.61378H33.3482V3.54714H31.273V2.12496H33.4174V1.05832H30.0971V7.38704ZM26.6361 5.32487L25.0451 1.05832H23.7999L26.3594 7.52926H26.9819L29.5414 1.05832H28.2963L26.6361 5.32487ZM12.5965 4.25825C12.5965 6.03598 13.98 7.52927 15.7093 7.52927C16.2627 7.52927 16.7469 7.38705 17.2311 7.17372V5.75154C16.8853 6.17819 16.401 6.46263 15.8477 6.46263C14.7409 6.46263 13.8416 5.60932 13.8416 4.47157V4.32936C13.7724 3.19161 14.6717 2.19608 15.7785 2.12497C16.3319 2.12497 16.8853 2.40941 17.2311 2.83606V1.41388C16.8161 1.12944 16.2627 1.05833 15.7785 1.05833C13.98 0.916115 12.5965 2.40941 12.5965 4.25825ZM10.4505 3.47604C9.75872 3.19161 9.5512 3.04939 9.5512 2.69384C9.62037 2.26719 9.96624 1.91164 10.3813 1.98275C10.7272 1.98275 11.073 2.19608 11.3497 2.48052L11.9723 1.6272C11.4881 1.20055 10.8655 0.916113 10.2429 0.916113C9.2745 0.845004 8.44442 1.6272 8.37524 2.62273V2.69384C8.37524 3.54715 8.72111 4.04492 9.82789 4.40046C10.1046 4.47157 10.3813 4.61379 10.658 4.75601C10.8655 4.89823 11.0039 5.11156 11.0039 5.39599C11.0039 5.89376 10.5888 6.32041 10.1738 6.32041H10.1046C9.5512 6.32041 9.06698 5.96487 8.85946 5.4671L8.09855 6.2493C8.51359 7.03151 9.34368 7.45816 10.1738 7.45816C11.2805 7.52927 12.1798 6.67596 12.249 5.53821V5.32488C12.1798 4.47157 11.8339 4.04492 10.4505 3.47604ZM6.43896 7.38704H7.61492V1.05832H6.43896V7.38704ZM0.976074 1.05831H2.70542H3.05129C4.71146 1.12942 6.02577 2.55161 5.95659 4.25823C5.95659 5.18265 5.54155 6.03596 4.84981 6.67594C4.22725 7.17371 3.46633 7.45814 2.70542 7.38703H0.976074V1.05831ZM2.49554 6.32045C3.04893 6.39156 3.6715 6.17823 4.08654 5.82269C4.50158 5.39603 4.70911 4.82716 4.70911 4.18718C4.70911 3.6183 4.50158 3.04943 4.08654 2.62277C3.6715 2.26723 3.04893 2.0539 2.49554 2.12501H2.14967V6.32045H2.49554Z" fill="white"/>
<path fill-rule="evenodd" clip-rule="evenodd" d="M20.7552 0.911621C19.0259 0.911621 17.5732 2.33381 17.5732 4.18264C17.5732 5.96037 18.9567 7.45367 20.7552 7.52478C22.5538 7.59589 23.9372 6.10259 24.0064 4.25375C23.9372 2.40491 22.5538 0.911621 20.7552 0.911621V0.911621Z" fill="#FD6020"/>
</svg>
