<svg width="33" height="32" viewBox="0 0 33 32" fill="none" xmlns="http://www.w3.org/2000/svg">
<g clip-path="url(#clip0_595_53952)">
<path d="M27.6177 12.1681V10.9378C27.6177 7.99328 26.5757 5.25714 24.6866 3.22689C22.7505 1.14286 20.0883 0 17.1841 0H16.169C13.2648 0 10.6026 1.14286 8.66647 3.22689C6.7774 5.25714 5.73538 7.99328 5.73538 10.9378V12.1681C3.44294 12.3227 1.62109 14.2319 1.62109 16.5647V18.4874C1.62109 20.9143 3.59756 22.8908 6.02446 22.8908H8.50513C8.94883 22.8908 9.31185 22.5277 9.31185 22.084V12.9613C9.31185 12.5176 8.94883 12.1546 8.50513 12.1546H7.34882V10.9378C7.34882 5.62017 11.1404 1.61345 16.1623 1.61345H17.1774C22.206 1.61345 25.9908 5.62017 25.9908 10.9378V12.1546H24.8345C24.3908 12.1546 24.0278 12.5176 24.0278 12.9613V22.0773C24.0278 22.521 24.3908 22.884 24.8345 22.884H25.964C25.6345 27.0924 22.7371 28.0672 21.3925 28.2891C21.0228 27.1529 19.9539 26.3328 18.6967 26.3328H16.6799C15.1203 26.3328 13.8497 27.6034 13.8497 29.163C13.8497 30.7227 15.1203 32 16.6799 32H18.7034C20.0077 32 21.1034 31.1126 21.4329 29.916C22.0917 29.8218 23.1337 29.5866 24.169 28.9815C25.6278 28.1277 27.3555 26.3866 27.5841 22.8773C29.89 22.7361 31.7186 20.8202 31.7186 18.4807V16.558C31.7253 14.2319 29.9102 12.316 27.6177 12.1681ZM7.71185 21.2706H6.0379C4.4984 21.2706 3.24798 20.0202 3.24798 18.4807V16.558C3.24798 15.0185 4.4984 13.7681 6.0379 13.7681H7.71185V21.2706ZM18.7034 30.3866H16.6799C16.0076 30.3866 15.4631 29.842 15.4631 29.1697C15.4631 28.4975 16.0076 27.9529 16.6799 27.9529H18.7034C19.3757 27.9529 19.9203 28.4975 19.9203 29.1697C19.9203 29.842 19.3757 30.3866 18.7034 30.3866ZM30.1119 18.4807C30.1119 20.0202 28.8614 21.2706 27.3219 21.2706H25.648V13.7681H27.3219C28.8614 13.7681 30.1119 15.0185 30.1119 16.558V18.4807Z" fill="#00B307"/>
</g>
<defs>
<clipPath id="clip0_595_53952">
<rect width="32" height="32" fill="white" transform="translate(0.667969)"/>
</clipPath>
</defs>
</svg>
