<svg width="31" height="19" viewBox="0 0 31 19" fill="none" xmlns="http://www.w3.org/2000/svg">
<path fill-rule="evenodd" clip-rule="evenodd" d="M15.7372 16.2741C14.17 17.5951 12.1372 18.3925 9.91585 18.3925C4.9594 18.3925 0.941406 14.4223 0.941406 9.52487C0.941406 4.62741 4.9594 0.657227 9.91585 0.657227C12.1372 0.657227 14.1701 1.45469 15.7372 2.77568C17.3044 1.45471 19.3372 0.657269 21.5585 0.657269C26.515 0.657269 30.533 4.62745 30.533 9.52492C30.533 14.4224 26.515 18.3926 21.5585 18.3926C19.3372 18.3926 17.3043 17.5951 15.7372 16.2741Z" fill="#ED0006"/>
<path fill-rule="evenodd" clip-rule="evenodd" d="M15.7368 16.274C17.6663 14.6475 18.8898 12.2274 18.8898 9.52487C18.8898 6.82238 17.6663 4.40225 15.7368 2.77576C17.304 1.45472 19.3369 0.657227 21.5583 0.657227C26.5147 0.657227 30.5327 4.62741 30.5327 9.52487C30.5327 14.4223 26.5147 18.3925 21.5583 18.3925C19.3369 18.3925 17.304 17.595 15.7368 16.274Z" fill="#F9A000"/>
<path fill-rule="evenodd" clip-rule="evenodd" d="M15.735 16.2741C17.6645 14.6476 18.888 12.2275 18.888 9.52499C18.888 6.8225 17.6645 4.40237 15.735 2.77588C13.8055 4.40237 12.582 6.8225 12.582 9.52499C12.582 12.2275 13.8055 14.6476 15.735 16.2741Z" fill="#FF5E00"/>
</svg>
