<svg width="87" height="24" viewBox="0 0 87 24" fill="none" xmlns="http://www.w3.org/2000/svg">
  <rect x="3" y="3" width="8" height="8" rx="1" fill="#646CFF"/>
  <rect x="12.5" y="2.5" width="9" height="9" rx="4.5" fill="#BD34FE"/>
  <rect x="3" y="13" width="8" height="8" rx="1" fill="#646CFF"/>
  <rect x="13" y="13" width="8" height="8" rx="1" fill="#646CFF"/>
  <path d="M33.1477 18V6.36364H37.6023C38.4432 6.36364 39.142 6.49621 39.6989 6.76136C40.2595 7.02273 40.678 7.38068 40.9545 7.83523C41.2348 8.28977 41.375 8.80492 41.375 9.38068C41.375 9.85417 41.2841 10.2595 41.1023 10.5966C40.9205 10.9299 40.6761 11.2008 40.3693 11.4091C40.0625 11.6174 39.7197 11.767 39.3409 11.858V11.9716C39.7538 11.9943 40.1496 12.1212 40.5284 12.3523C40.911 12.5795 41.2235 12.9015 41.4659 13.3182C41.7083 13.7348 41.8295 14.2386 41.8295 14.8295C41.8295 15.4318 41.6837 15.9735 41.392 16.4545C41.1004 16.9318 40.661 17.3087 40.0739 17.5852C39.4867 17.8617 38.7481 18 37.858 18H33.1477ZM35.2557 16.2386H37.5227C38.2879 16.2386 38.839 16.0928 39.1761 15.8011C39.517 15.5057 39.6875 15.1269 39.6875 14.6648C39.6875 14.3201 39.6023 14.0095 39.4318 13.733C39.2614 13.4527 39.0189 13.233 38.7045 13.0739C38.3902 12.911 38.0152 12.8295 37.5795 12.8295H35.2557V16.2386ZM35.2557 11.3125H37.3409C37.7045 11.3125 38.0322 11.2462 38.3239 11.1136C38.6155 10.9773 38.8447 10.786 39.0114 10.5398C39.1818 10.2898 39.267 9.99432 39.267 9.65341C39.267 9.20265 39.108 8.83144 38.7898 8.53977C38.4754 8.24811 38.0076 8.10227 37.3864 8.10227H35.2557V11.3125ZM49.1349 14.3295V9.27273H51.1918V18H49.1974V16.4489H49.1065C48.9096 16.9375 48.5857 17.3371 48.1349 17.6477C47.688 17.9583 47.1368 18.1136 46.4815 18.1136C45.9096 18.1136 45.4039 17.9867 44.9645 17.733C44.5289 17.4754 44.188 17.1023 43.9418 16.6136C43.6955 16.1212 43.5724 15.5265 43.5724 14.8295V9.27273H45.6293V14.5114C45.6293 15.0644 45.7808 15.5038 46.0838 15.8295C46.3868 16.1553 46.7846 16.3182 47.277 16.3182C47.58 16.3182 47.8736 16.2443 48.1577 16.0966C48.4418 15.9489 48.6747 15.7292 48.8565 15.4375C49.0421 15.142 49.1349 14.7727 49.1349 14.3295ZM53.3068 18V9.27273H55.3636V18H53.3068ZM54.3409 8.03409C54.0152 8.03409 53.7348 7.92614 53.5 7.71023C53.2652 7.49053 53.1477 7.22727 53.1477 6.92045C53.1477 6.60985 53.2652 6.34659 53.5 6.13068C53.7348 5.91098 54.0152 5.80114 54.3409 5.80114C54.6705 5.80114 54.9508 5.91098 55.1818 6.13068C55.4167 6.34659 55.5341 6.60985 55.5341 6.92045C55.5341 7.22727 55.4167 7.49053 55.1818 7.71023C54.9508 7.92614 54.6705 8.03409 54.3409 8.03409ZM59.5355 6.36364V18H57.4787V6.36364H59.5355ZM64.8892 18.1534C64.2036 18.1534 63.59 17.9773 63.0483 17.625C62.5066 17.2727 62.0786 16.7614 61.7642 16.0909C61.4498 15.4205 61.2926 14.6061 61.2926 13.6477C61.2926 12.678 61.4517 11.8598 61.7699 11.1932C62.0919 10.5227 62.5256 10.017 63.071 9.67614C63.6165 9.33144 64.2244 9.15909 64.8949 9.15909C65.4063 9.15909 65.8267 9.24621 66.1562 9.42045C66.4858 9.59091 66.7472 9.79735 66.9403 10.0398C67.1335 10.2784 67.2831 10.5038 67.3892 10.7159H67.4744V6.36364H69.5369V18H67.5142V16.625H67.3892C67.2831 16.8371 67.1297 17.0625 66.929 17.3011C66.7282 17.536 66.4631 17.7367 66.1335 17.9034C65.804 18.0701 65.3892 18.1534 64.8892 18.1534ZM65.4631 16.4659C65.8987 16.4659 66.2699 16.3485 66.5767 16.1136C66.8835 15.875 67.1165 15.5436 67.2756 15.1193C67.4347 14.6951 67.5142 14.2008 67.5142 13.6364C67.5142 13.072 67.4347 12.5814 67.2756 12.1648C67.1203 11.7481 66.8892 11.4242 66.5824 11.1932C66.2794 10.9621 65.9063 10.8466 65.4631 10.8466C65.0047 10.8466 64.6222 10.9659 64.3153 11.2045C64.0085 11.4432 63.7775 11.7727 63.6222 12.1932C63.4669 12.6136 63.3892 13.0947 63.3892 13.6364C63.3892 14.1818 63.4669 14.6686 63.6222 15.0966C63.7813 15.5208 64.0142 15.8561 64.321 16.1023C64.6316 16.3447 65.0123 16.4659 65.4631 16.4659ZM75.5923 18.1705C74.7173 18.1705 73.9616 17.9886 73.3253 17.625C72.6927 17.2576 72.206 16.7386 71.8651 16.0682C71.5241 15.3939 71.3537 14.6004 71.3537 13.6875C71.3537 12.7898 71.5241 12.0019 71.8651 11.3239C72.2098 10.642 72.6908 10.1117 73.3082 9.73295C73.9257 9.35038 74.651 9.15909 75.4844 9.15909C76.0223 9.15909 76.5298 9.24621 77.0071 9.42045C77.4882 9.59091 77.9124 9.85606 78.2798 10.2159C78.651 10.5758 78.9427 11.0341 79.1548 11.5909C79.367 12.1439 79.473 12.803 79.473 13.5682V14.1989H72.3196V12.8125H77.5014C77.4976 12.4186 77.4124 12.0682 77.2457 11.7614C77.0791 11.4508 76.8461 11.2064 76.5469 11.0284C76.2514 10.8504 75.9067 10.7614 75.5128 10.7614C75.0923 10.7614 74.723 10.8636 74.4048 11.0682C74.0866 11.2689 73.8385 11.5341 73.6605 11.8636C73.4863 12.1894 73.3973 12.5473 73.3935 12.9375V14.1477C73.3935 14.6553 73.4863 15.0909 73.6719 15.4545C73.8575 15.8144 74.117 16.0909 74.4503 16.2841C74.7836 16.4735 75.1738 16.5682 75.6207 16.5682C75.92 16.5682 76.1908 16.5265 76.4332 16.4432C76.6757 16.3561 76.8859 16.2292 77.0639 16.0625C77.242 15.8958 77.3764 15.6894 77.4673 15.4432L79.3878 15.6591C79.2666 16.1667 79.0355 16.6098 78.6946 16.9886C78.3575 17.3636 77.9257 17.6553 77.3991 17.8636C76.8726 18.0682 76.2704 18.1705 75.5923 18.1705ZM81.2131 18V9.27273H83.2074V10.7273H83.2983C83.4574 10.2235 83.7301 9.83523 84.1165 9.5625C84.5066 9.28598 84.9517 9.14773 85.4517 9.14773C85.5653 9.14773 85.6922 9.15341 85.8324 9.16477C85.9763 9.17235 86.0956 9.18561 86.1903 9.20455V11.0966C86.1032 11.0663 85.965 11.0398 85.7756 11.017C85.59 10.9905 85.41 10.9773 85.2358 10.9773C84.8608 10.9773 84.5237 11.0587 84.2244 11.2216C83.929 11.3807 83.696 11.6023 83.5256 11.8864C83.3551 12.1705 83.2699 12.4981 83.2699 12.8693V18H81.2131Z" fill="CurrentColor" fill-opacity="0.92"/>
</svg>
