<svg width="45" height="32" viewBox="0 0 45 32" fill="none" xmlns="http://www.w3.org/2000/svg">
<path d="M28.5577 24.3927C33.5141 24.3927 37.5321 20.4225 37.5321 15.525C37.5321 10.6276 33.5141 6.65739 28.5577 6.65739C26.3364 6.65739 24.3037 7.45475 22.7366 8.77559C21.1695 7.4548 19.1368 6.65747 16.9156 6.65747C11.9592 6.65747 7.94118 10.6277 7.94118 15.5251C7.94118 20.4226 11.9592 24.3928 16.9156 24.3928C19.1368 24.3928 21.1696 23.5954 22.7367 22.2746C24.3038 23.5954 26.3365 24.3927 28.5577 24.3927Z" fill="#FF5E00"/>
<path d="M22.7367 22.2746C24.6662 20.6481 25.8899 18.2275 25.8899 15.525C25.8899 12.8225 24.6661 10.4021 22.7366 8.77559C24.3037 7.45475 26.3364 6.65739 28.5577 6.65739C33.5141 6.65739 37.5321 10.6276 37.5321 15.525C37.5321 20.4225 33.5141 24.3927 28.5577 24.3927C26.3365 24.3927 24.3038 23.5954 22.7367 22.2746Z" fill="#FF5E00"/>
<path d="M22.7367 22.2746C24.6662 20.6481 25.8899 18.2275 25.8899 15.525C25.8899 12.8225 24.6661 10.4021 22.7366 8.77559C20.8069 10.4021 19.5832 12.8225 19.5832 15.5251C19.5832 18.2278 20.807 20.6481 22.7367 22.2746Z" fill="#FF5E00"/>
</svg>
