<svg width="55" height="26" viewBox="0 0 55 26" fill="none" xmlns="http://www.w3.org/2000/svg">
<g clip-path="url(#clip0_460_39913)">
<rect width="11" height="11" fill="#002603"/>
<path d="M8.70833 5.04199H2.29167C1.78541 5.04199 1.375 5.4524 1.375 5.95866V9.16699C1.375 9.67325 1.78541 10.0837 2.29167 10.0837H8.70833C9.21459 10.0837 9.625 9.67325 9.625 9.16699V5.95866C9.625 5.4524 9.21459 5.04199 8.70833 5.04199Z" stroke="white" stroke-width="0.916667" stroke-linecap="round" stroke-linejoin="round"/>
<path d="M3.2085 5.04199V3.20866C3.2085 2.60087 3.44994 2.01798 3.87971 1.58821C4.30948 1.15843 4.89237 0.916992 5.50016 0.916992C6.10795 0.916992 6.69084 1.15843 7.12062 1.58821C7.55039 2.01798 7.79183 2.60087 7.79183 3.20866V5.04199" stroke="white" stroke-width="0.916667" stroke-linecap="round" stroke-linejoin="round"/>
</g>
<path d="M16.278 9.077C15.772 9.077 15.3173 8.989 14.914 8.813C14.518 8.62967 14.2063 8.38033 13.979 8.065C13.7517 7.74233 13.6343 7.372 13.627 6.954H14.694C14.7307 7.31333 14.8773 7.61767 15.134 7.867C15.398 8.109 15.7793 8.23 16.278 8.23C16.7547 8.23 17.1287 8.11267 17.4 7.878C17.6787 7.636 17.818 7.328 17.818 6.954C17.818 6.66067 17.7373 6.42233 17.576 6.239C17.4147 6.05567 17.213 5.91633 16.971 5.821C16.729 5.72567 16.4027 5.623 15.992 5.513C15.486 5.381 15.079 5.249 14.771 5.117C14.4703 4.985 14.21 4.77967 13.99 4.501C13.7773 4.215 13.671 3.83367 13.671 3.357C13.671 2.939 13.7773 2.56867 13.99 2.246C14.2027 1.92333 14.4997 1.674 14.881 1.498C15.2697 1.322 15.7133 1.234 16.212 1.234C16.9307 1.234 17.5173 1.41367 17.972 1.773C18.434 2.13233 18.6943 2.609 18.753 3.203H17.653C17.6163 2.90967 17.4623 2.653 17.191 2.433C16.9197 2.20567 16.5603 2.092 16.113 2.092C15.695 2.092 15.354 2.202 15.09 2.422C14.826 2.63467 14.694 2.93533 14.694 3.324C14.694 3.60267 14.771 3.83 14.925 4.006C15.0863 4.182 15.2807 4.31767 15.508 4.413C15.7427 4.501 16.069 4.60367 16.487 4.721C16.993 4.86033 17.4 4.99967 17.708 5.139C18.016 5.271 18.28 5.48 18.5 5.766C18.72 6.04467 18.83 6.426 18.83 6.91C18.83 7.284 18.731 7.636 18.533 7.966C18.335 8.296 18.0417 8.56367 17.653 8.769C17.2643 8.97433 16.806 9.077 16.278 9.077ZM25.8031 5.755C25.8031 5.94567 25.7921 6.14733 25.7701 6.36H20.9521C20.9887 6.954 21.1904 7.41967 21.5571 7.757C21.9311 8.087 22.3821 8.252 22.9101 8.252C23.3427 8.252 23.7021 8.153 23.9881 7.955C24.2814 7.74967 24.4867 7.47833 24.6041 7.141H25.6821C25.5207 7.72033 25.1981 8.19333 24.7141 8.56C24.2301 8.91933 23.6287 9.099 22.9101 9.099C22.3381 9.099 21.8247 8.97067 21.3701 8.714C20.9227 8.45733 20.5707 8.09433 20.3141 7.625C20.0574 7.14833 19.9291 6.59833 19.9291 5.975C19.9291 5.35167 20.0537 4.80533 20.3031 4.336C20.5524 3.86667 20.9007 3.50733 21.3481 3.258C21.8027 3.00133 22.3234 2.873 22.9101 2.873C23.4821 2.873 23.9881 2.99767 24.4281 3.247C24.8681 3.49633 25.2054 3.841 25.4401 4.281C25.6821 4.71367 25.8031 5.205 25.8031 5.755ZM24.7691 5.546C24.7691 5.16467 24.6847 4.83833 24.5161 4.567C24.3474 4.28833 24.1164 4.07933 23.8231 3.94C23.5371 3.79333 23.2181 3.72 22.8661 3.72C22.3601 3.72 21.9274 3.88133 21.5681 4.204C21.2161 4.52667 21.0144 4.974 20.9631 5.546H24.7691ZM26.7503 5.975C26.7503 5.35167 26.875 4.809 27.1243 4.347C27.3737 3.87767 27.7183 3.51467 28.1583 3.258C28.6057 3.00133 29.1153 2.873 29.6873 2.873C30.428 2.873 31.0367 3.05267 31.5133 3.412C31.9973 3.77133 32.3163 4.27 32.4703 4.908H31.3923C31.2897 4.54133 31.088 4.25167 30.7873 4.039C30.494 3.82633 30.1273 3.72 29.6873 3.72C29.1153 3.72 28.6533 3.918 28.3013 4.314C27.9493 4.70267 27.7733 5.25633 27.7733 5.975C27.7733 6.701 27.9493 7.262 28.3013 7.658C28.6533 8.054 29.1153 8.252 29.6873 8.252C30.1273 8.252 30.494 8.14933 30.7873 7.944C31.0807 7.73867 31.2823 7.44533 31.3923 7.064H32.4703C32.309 7.68 31.9863 8.175 31.5023 8.549C31.0183 8.91567 30.4133 9.099 29.6873 9.099C29.1153 9.099 28.6057 8.97067 28.1583 8.714C27.7183 8.45733 27.3737 8.09433 27.1243 7.625C26.875 7.15567 26.7503 6.60567 26.7503 5.975ZM39.152 2.972V9H38.151V8.109C37.9603 8.417 37.6927 8.659 37.348 8.835C37.0107 9.00367 36.6367 9.088 36.226 9.088C35.7567 9.088 35.335 8.99267 34.961 8.802C34.587 8.604 34.29 8.31067 34.07 7.922C33.8573 7.53333 33.751 7.06033 33.751 6.503V2.972H34.741V6.371C34.741 6.965 34.8913 7.42333 35.192 7.746C35.4927 8.06133 35.9033 8.219 36.424 8.219C36.9593 8.219 37.381 8.054 37.689 7.724C37.997 7.394 38.151 6.91367 38.151 6.283V2.972H39.152ZM41.8431 3.951C42.0191 3.60633 42.2685 3.33867 42.5911 3.148C42.9211 2.95733 43.3208 2.862 43.7901 2.862V3.896H43.5261C42.4041 3.896 41.8431 4.50467 41.8431 5.722V9H40.8421V2.972H41.8431V3.951ZM50.4456 5.755C50.4456 5.94567 50.4346 6.14733 50.4126 6.36H45.5946C45.6313 6.954 45.833 7.41967 46.1996 7.757C46.5736 8.087 47.0246 8.252 47.5526 8.252C47.9853 8.252 48.3446 8.153 48.6306 7.955C48.924 7.74967 49.1293 7.47833 49.2466 7.141H50.3246C50.1633 7.72033 49.8406 8.19333 49.3566 8.56C48.8726 8.91933 48.2713 9.099 47.5526 9.099C46.9806 9.099 46.4673 8.97067 46.0126 8.714C45.5653 8.45733 45.2133 8.09433 44.9566 7.625C44.7 7.14833 44.5716 6.59833 44.5716 5.975C44.5716 5.35167 44.6963 4.80533 44.9456 4.336C45.195 3.86667 45.5433 3.50733 45.9906 3.258C46.4453 3.00133 46.966 2.873 47.5526 2.873C48.1246 2.873 48.6306 2.99767 49.0706 3.247C49.5106 3.49633 49.848 3.841 50.0826 4.281C50.3246 4.71367 50.4456 5.205 50.4456 5.755ZM49.4116 5.546C49.4116 5.16467 49.3273 4.83833 49.1586 4.567C48.99 4.28833 48.759 4.07933 48.4656 3.94C48.1796 3.79333 47.8606 3.72 47.5086 3.72C47.0026 3.72 46.57 3.88133 46.2106 4.204C45.8586 4.52667 45.657 4.974 45.6056 5.546H49.4116Z" fill="white"/>
<path d="M6.80319 16.216C6.80319 16.664 6.69519 17.084 6.47919 17.476C6.27119 17.868 5.93919 18.184 5.48319 18.424C5.03519 18.664 4.46719 18.784 3.77919 18.784H2.37519V22H0.695188V13.624H3.77919C4.42719 13.624 4.97919 13.736 5.43519 13.96C5.89119 14.184 6.23119 14.492 6.45519 14.884C6.68719 15.276 6.80319 15.72 6.80319 16.216ZM3.70719 17.428C4.17119 17.428 4.51519 17.324 4.73919 17.116C4.96319 16.9 5.07519 16.6 5.07519 16.216C5.07519 15.4 4.61919 14.992 3.70719 14.992H2.37519V17.428H3.70719ZM7.56397 18.652C7.56397 17.98 7.69597 17.384 7.95997 16.864C8.23197 16.344 8.59597 15.944 9.05197 15.664C9.51597 15.384 10.032 15.244 10.6 15.244C11.096 15.244 11.528 15.344 11.896 15.544C12.272 15.744 12.572 15.996 12.796 16.3V15.352H14.488V22H12.796V21.028C12.58 21.34 12.28 21.6 11.896 21.808C11.52 22.008 11.084 22.108 10.588 22.108C10.028 22.108 9.51597 21.964 9.05197 21.676C8.59597 21.388 8.23197 20.984 7.95997 20.464C7.69597 19.936 7.56397 19.332 7.56397 18.652ZM12.796 18.676C12.796 18.268 12.716 17.92 12.556 17.632C12.396 17.336 12.18 17.112 11.908 16.96C11.636 16.8 11.344 16.72 11.032 16.72C10.72 16.72 10.432 16.796 10.168 16.948C9.90397 17.1 9.68797 17.324 9.51997 17.62C9.35997 17.908 9.27997 18.252 9.27997 18.652C9.27997 19.052 9.35997 19.404 9.51997 19.708C9.68797 20.004 9.90397 20.232 10.168 20.392C10.44 20.552 10.728 20.632 11.032 20.632C11.344 20.632 11.636 20.556 11.908 20.404C12.18 20.244 12.396 20.02 12.556 19.732C12.716 19.436 12.796 19.084 12.796 18.676ZM22.4888 15.352L18.3728 25.144H16.5848L18.0248 21.832L15.3608 15.352H17.2448L18.9608 19.996L20.7008 15.352H22.4888ZM31.6504 15.256C32.4664 15.256 33.1224 15.508 33.6184 16.012C34.1224 16.508 34.3744 17.204 34.3744 18.1V22H32.6944V18.328C32.6944 17.808 32.5624 17.412 32.2984 17.14C32.0344 16.86 31.6744 16.72 31.2184 16.72C30.7624 16.72 30.3984 16.86 30.1264 17.14C29.8624 17.412 29.7304 17.808 29.7304 18.328V22H28.0504V18.328C28.0504 17.808 27.9184 17.412 27.6544 17.14C27.3904 16.86 27.0304 16.72 26.5744 16.72C26.1104 16.72 25.7424 16.86 25.4704 17.14C25.2064 17.412 25.0744 17.808 25.0744 18.328V22H23.3944V15.352H25.0744V16.156C25.2904 15.876 25.5664 15.656 25.9024 15.496C26.2464 15.336 26.6224 15.256 27.0304 15.256C27.5504 15.256 28.0144 15.368 28.4224 15.592C28.8304 15.808 29.1464 16.12 29.3704 16.528C29.5864 16.144 29.8984 15.836 30.3064 15.604C30.7224 15.372 31.1704 15.256 31.6504 15.256ZM42.1486 18.532C42.1486 18.772 42.1326 18.988 42.1006 19.18H37.2406C37.2806 19.66 37.4486 20.036 37.7446 20.308C38.0406 20.58 38.4046 20.716 38.8366 20.716C39.4606 20.716 39.9046 20.448 40.1686 19.912H41.9806C41.7886 20.552 41.4206 21.08 40.8766 21.496C40.3326 21.904 39.6646 22.108 38.8726 22.108C38.2326 22.108 37.6566 21.968 37.1446 21.688C36.6406 21.4 36.2446 20.996 35.9566 20.476C35.6766 19.956 35.5366 19.356 35.5366 18.676C35.5366 17.988 35.6766 17.384 35.9566 16.864C36.2366 16.344 36.6286 15.944 37.1326 15.664C37.6366 15.384 38.2166 15.244 38.8726 15.244C39.5046 15.244 40.0686 15.38 40.5646 15.652C41.0686 15.924 41.4566 16.312 41.7286 16.816C42.0086 17.312 42.1486 17.884 42.1486 18.532ZM40.4086 18.052C40.4006 17.62 40.2446 17.276 39.9406 17.02C39.6366 16.756 39.2646 16.624 38.8246 16.624C38.4086 16.624 38.0566 16.752 37.7686 17.008C37.4886 17.256 37.3166 17.604 37.2526 18.052H40.4086ZM47.0589 15.256C47.8509 15.256 48.4909 15.508 48.9789 16.012C49.4669 16.508 49.7109 17.204 49.7109 18.1V22H48.0309V18.328C48.0309 17.8 47.8989 17.396 47.6349 17.116C47.3709 16.828 47.0109 16.684 46.5549 16.684C46.0909 16.684 45.7229 16.828 45.4509 17.116C45.1869 17.396 45.0549 17.8 45.0549 18.328V22H43.3749V15.352H45.0549V16.18C45.2789 15.892 45.5629 15.668 45.9069 15.508C46.2589 15.34 46.6429 15.256 47.0589 15.256ZM53.2645 16.732V19.948C53.2645 20.172 53.3165 20.336 53.4205 20.44C53.5325 20.536 53.7165 20.584 53.9725 20.584H54.7525V22H53.6965C52.2805 22 51.5725 21.312 51.5725 19.936V16.732H50.7805V15.352H51.5725V13.708H53.2645V15.352H54.7525V16.732H53.2645Z" fill="white"/>
<defs>
<clipPath id="clip0_460_39913">
<rect width="11" height="11" fill="white"/>
</clipPath>
</defs>
</svg>
