<svg width="45" height="32" viewBox="0 0 45 32" fill="none" xmlns="http://www.w3.org/2000/svg">

<path fill-rule="evenodd" clip-rule="evenodd" d="M14.228 20.9889H11.5019L9.45762 12.9605C9.36059 12.5912 9.15457 12.2647 8.85152 12.1108C8.09522 11.7241 7.26183 11.4164 6.35268 11.2612V10.9521H10.7443C11.3504 10.9521 11.8049 11.4164 11.8807 11.9556L12.9414 17.7467L15.6662 10.9521H18.3165L14.228 20.9889ZM19.8315 20.9889H17.2569L19.377 10.9521H21.9516L19.8315 20.9889ZM25.2825 13.7327C25.3583 13.1921 25.8128 12.883 26.3432 12.883C27.1766 12.8054 28.0844 12.9606 28.842 13.346L29.2966 11.185C28.539 10.8759 27.7056 10.7207 26.9493 10.7207C24.4504 10.7207 22.6321 12.111 22.6321 14.0404C22.6321 15.5083 23.9201 16.279 24.8292 16.7433C25.8128 17.2063 26.1916 17.5154 26.1159 17.9784C26.1159 18.6728 25.3583 18.9819 24.602 18.9819C23.6928 18.9819 22.7836 18.7504 21.9516 18.3637L21.497 20.526C22.4062 20.9114 23.3898 21.0666 24.2989 21.0666C27.1008 21.1429 28.842 19.754 28.842 17.6693C28.842 15.044 25.2825 14.8901 25.2825 13.7327ZM37.8529 20.9889L35.8087 10.9521H33.6129C33.1583 10.9521 32.7037 11.2612 32.5522 11.7241L28.7667 20.9889H31.4171L31.9461 19.5224H35.2026L35.5056 20.9889H37.8529ZM33.9912 13.655L34.7475 17.4377H32.6275L33.9912 13.655Z" fill="white"/>
</svg>
